<svg width="406" height="406" viewBox="0 0 406 406" fill="none" xmlns="http://www.w3.org/2000/svg">
<rect width="406" height="406" fill="white"/>
<path d="M203 344C280.872 344 344 280.872 344 203C344 125.128 280.872 62 203 62C125.128 62 62 125.128 62 203C62 280.872 125.128 344 203 344Z" stroke="black" stroke-width="18" stroke-linecap="round" stroke-linejoin="round"/>
<path d="M186.045 175.348C185.943 174.317 185.504 173.516 184.728 172.945C183.953 172.374 182.9 172.088 181.571 172.088C180.667 172.088 179.904 172.216 179.282 172.472C178.66 172.719 178.183 173.064 177.85 173.507C177.527 173.95 177.365 174.453 177.365 175.016C177.348 175.484 177.446 175.893 177.659 176.243C177.88 176.592 178.183 176.895 178.566 177.151C178.95 177.398 179.393 177.615 179.896 177.803C180.399 177.982 180.936 178.135 181.507 178.263L183.859 178.825C185.001 179.081 186.049 179.422 187.004 179.848C187.958 180.274 188.785 180.798 189.484 181.42C190.183 182.043 190.724 182.776 191.108 183.619C191.5 184.463 191.7 185.43 191.708 186.521C191.7 188.124 191.291 189.513 190.481 190.689C189.68 191.857 188.521 192.764 187.004 193.412C185.495 194.051 183.676 194.371 181.545 194.371C179.431 194.371 177.591 194.047 176.022 193.399C174.463 192.751 173.244 191.793 172.366 190.523C171.497 189.244 171.041 187.663 170.998 185.78H176.355C176.414 186.658 176.666 187.391 177.109 187.979C177.561 188.558 178.162 188.997 178.912 189.295C179.67 189.585 180.527 189.73 181.481 189.73C182.419 189.73 183.233 189.594 183.923 189.321C184.622 189.048 185.163 188.669 185.547 188.183C185.93 187.697 186.122 187.139 186.122 186.509C186.122 185.92 185.947 185.426 185.598 185.026C185.257 184.625 184.754 184.284 184.089 184.003C183.433 183.722 182.627 183.466 181.673 183.236L178.822 182.52C176.615 181.983 174.872 181.143 173.593 180.001C172.315 178.859 171.68 177.321 171.689 175.386C171.68 173.801 172.102 172.416 172.954 171.232C173.815 170.047 174.995 169.122 176.495 168.457C177.995 167.793 179.7 167.46 181.609 167.46C183.552 167.46 185.248 167.793 186.697 168.457C188.154 169.122 189.288 170.047 190.098 171.232C190.907 172.416 191.325 173.788 191.35 175.348H186.045ZM207.922 185.639V174.364H213.368V194H208.139V190.433H207.935C207.491 191.584 206.754 192.509 205.723 193.207C204.7 193.906 203.452 194.256 201.977 194.256C200.665 194.256 199.51 193.957 198.513 193.361C197.516 192.764 196.736 191.916 196.173 190.817C195.619 189.717 195.338 188.401 195.33 186.866V174.364H200.776V185.895C200.784 187.054 201.095 187.97 201.709 188.643C202.322 189.317 203.145 189.653 204.176 189.653C204.832 189.653 205.446 189.504 206.017 189.206C206.588 188.899 207.048 188.447 207.398 187.851C207.756 187.254 207.93 186.517 207.922 185.639ZM223.324 194.371C222.071 194.371 220.954 194.153 219.974 193.719C218.994 193.276 218.218 192.624 217.647 191.763C217.085 190.893 216.804 189.811 216.804 188.516C216.804 187.425 217.004 186.509 217.404 185.767C217.805 185.026 218.35 184.429 219.041 183.977C219.731 183.526 220.515 183.185 221.393 182.955C222.279 182.724 223.208 182.562 224.18 182.469C225.322 182.349 226.243 182.239 226.941 182.136C227.64 182.026 228.147 181.864 228.463 181.651C228.778 181.437 228.936 181.122 228.936 180.705V180.628C228.936 179.818 228.68 179.192 228.169 178.749C227.666 178.305 226.95 178.084 226.021 178.084C225.041 178.084 224.261 178.301 223.681 178.736C223.102 179.162 222.718 179.699 222.531 180.347L217.494 179.938C217.75 178.744 218.252 177.713 219.002 176.844C219.752 175.966 220.72 175.293 221.904 174.824C223.098 174.347 224.478 174.108 226.047 174.108C227.137 174.108 228.181 174.236 229.179 174.491C230.184 174.747 231.075 175.143 231.85 175.68C232.635 176.217 233.252 176.908 233.704 177.751C234.156 178.587 234.382 179.588 234.382 180.756V194H229.217V191.277H229.064C228.748 191.891 228.326 192.432 227.798 192.901C227.27 193.361 226.635 193.723 225.893 193.987C225.152 194.243 224.295 194.371 223.324 194.371ZM224.883 190.612C225.684 190.612 226.392 190.455 227.005 190.139C227.619 189.815 228.1 189.381 228.45 188.835C228.799 188.29 228.974 187.672 228.974 186.982V184.898C228.804 185.009 228.569 185.111 228.271 185.205C227.981 185.29 227.653 185.371 227.287 185.447C226.92 185.516 226.554 185.58 226.187 185.639C225.821 185.69 225.488 185.737 225.19 185.78C224.551 185.874 223.993 186.023 223.515 186.227C223.038 186.432 222.667 186.709 222.403 187.058C222.139 187.399 222.007 187.825 222.007 188.337C222.007 189.078 222.275 189.645 222.812 190.037C223.358 190.42 224.048 190.612 224.883 190.612ZM161.594 238V211.818H167.129V233.436H178.354V238H161.594ZM190.79 238.384C188.804 238.384 187.086 237.962 185.638 237.118C184.197 236.266 183.085 235.081 182.301 233.564C181.517 232.038 181.125 230.27 181.125 228.259C181.125 226.23 181.517 224.457 182.301 222.94C183.085 221.415 184.197 220.23 185.638 219.386C187.086 218.534 188.804 218.108 190.79 218.108C192.775 218.108 194.488 218.534 195.929 219.386C197.378 220.23 198.494 221.415 199.278 222.94C200.062 224.457 200.454 226.23 200.454 228.259C200.454 230.27 200.062 232.038 199.278 233.564C198.494 235.081 197.378 236.266 195.929 237.118C194.488 237.962 192.775 238.384 190.79 238.384ZM190.815 234.165C191.719 234.165 192.473 233.909 193.078 233.398C193.683 232.878 194.139 232.17 194.446 231.276C194.761 230.381 194.919 229.362 194.919 228.22C194.919 227.078 194.761 226.06 194.446 225.165C194.139 224.27 193.683 223.562 193.078 223.043C192.473 222.523 191.719 222.263 190.815 222.263C189.903 222.263 189.136 222.523 188.514 223.043C187.9 223.562 187.436 224.27 187.121 225.165C186.814 226.06 186.66 227.078 186.66 228.22C186.66 229.362 186.814 230.381 187.121 231.276C187.436 232.17 187.9 232.878 188.514 233.398C189.136 233.909 189.903 234.165 190.815 234.165ZM212.842 245.773C211.078 245.773 209.565 245.53 208.304 245.044C207.051 244.567 206.054 243.915 205.312 243.088C204.571 242.261 204.089 241.332 203.868 240.301L208.905 239.624C209.058 240.016 209.301 240.382 209.633 240.723C209.966 241.064 210.405 241.337 210.95 241.541C211.504 241.754 212.177 241.861 212.97 241.861C214.155 241.861 215.131 241.571 215.898 240.991C216.673 240.42 217.061 239.462 217.061 238.115V234.523H216.831C216.592 235.068 216.234 235.584 215.757 236.07C215.28 236.555 214.666 236.952 213.916 237.259C213.166 237.565 212.271 237.719 211.231 237.719C209.757 237.719 208.415 237.378 207.204 236.696C206.003 236.006 205.044 234.953 204.328 233.538C203.621 232.115 203.267 230.317 203.267 228.143C203.267 225.919 203.629 224.061 204.354 222.57C205.078 221.078 206.041 219.962 207.243 219.22C208.453 218.479 209.778 218.108 211.219 218.108C212.318 218.108 213.238 218.295 213.98 218.67C214.721 219.037 215.318 219.497 215.77 220.051C216.23 220.597 216.584 221.134 216.831 221.662H217.035V218.364H222.443V238.192C222.443 239.862 222.034 241.26 221.216 242.385C220.398 243.51 219.264 244.354 217.815 244.916C216.375 245.487 214.717 245.773 212.842 245.773ZM212.957 233.628C213.835 233.628 214.577 233.411 215.182 232.976C215.795 232.533 216.264 231.902 216.588 231.084C216.92 230.257 217.086 229.268 217.086 228.118C217.086 226.967 216.925 225.97 216.601 225.126C216.277 224.274 215.808 223.614 215.194 223.145C214.581 222.676 213.835 222.442 212.957 222.442C212.062 222.442 211.308 222.685 210.694 223.17C210.081 223.648 209.616 224.312 209.301 225.165C208.986 226.017 208.828 227.001 208.828 228.118C208.828 229.251 208.986 230.232 209.301 231.058C209.625 231.876 210.089 232.511 210.694 232.963C211.308 233.406 212.062 233.628 212.957 233.628ZM235.649 238.384C233.663 238.384 231.946 237.962 230.497 237.118C229.057 236.266 227.944 235.081 227.16 233.564C226.376 232.038 225.984 230.27 225.984 228.259C225.984 226.23 226.376 224.457 227.16 222.94C227.944 221.415 229.057 220.23 230.497 219.386C231.946 218.534 233.663 218.108 235.649 218.108C237.635 218.108 239.348 218.534 240.788 219.386C242.237 220.23 243.354 221.415 244.138 222.94C244.922 224.457 245.314 226.23 245.314 228.259C245.314 230.27 244.922 232.038 244.138 233.564C243.354 235.081 242.237 236.266 240.788 237.118C239.348 237.962 237.635 238.384 235.649 238.384ZM235.675 234.165C236.578 234.165 237.332 233.909 237.937 233.398C238.542 232.878 238.998 232.17 239.305 231.276C239.621 230.381 239.778 229.362 239.778 228.22C239.778 227.078 239.621 226.06 239.305 225.165C238.998 224.27 238.542 223.562 237.937 223.043C237.332 222.523 236.578 222.263 235.675 222.263C234.763 222.263 233.996 222.523 233.373 223.043C232.76 223.562 232.295 224.27 231.98 225.165C231.673 226.06 231.52 227.078 231.52 228.22C231.52 229.362 231.673 230.381 231.98 231.276C232.295 232.17 232.76 232.878 233.373 233.398C233.996 233.909 234.763 234.165 235.675 234.165Z" fill="black"/>
</svg>
